<svg xmlns="http://www.w3.org/2000/svg" width="1024" height="1024"><path d="M480 234v2l1.754.801c6.566 3.505 11.238 9.062 15.246 15.199l-1 2c-4.477-1.378-8.698-3.134-12.976-5.021-45.903-20.224-93.047-27.297-140.934-9.163-16.618 6.583-31.912 15.33-46.09 26.184l-2.711 2.066c-8.143 6.444-15.563 13.682-23.075 20.838a764 764 0 0 1-6.581 6.147C249.611 308.016 235.99 320.659 235 341c-.157 22.252 9.532 49.895 25.062 66.16 6.753 6.46 12.575 8.885 21.876 9.278 9.875-.289 17.234-4.765 25.062-10.438 1.46 2.694 2.339 5.047 2.859 8.062l.434 2.385.457 2.553c6.684 35.16 22.497 65.394 46.25 92l1.5 1.687c5.749 6.712 5.749 6.712 12.5 12.313v2l1.777.797c2.333 1.263 3.876 2.619 5.785 4.453 15.27 13.738 32.905 24.211 50.438 34.75q4.942 2.992 9.875 6l2.181 1.33C455.39 583.104 468.411 592.894 481 604l2.176 1.91c8.692 8.133 16.267 19.583 17.058 31.668.014 3.153-.054 6.275-.234 9.422l-2 1-1.582-.975c-10.528-6.462-21.068-12.59-32.198-17.947-4.428-2.15-8.82-4.371-13.22-6.578l-5.68-2.84-9.578-4.789-1.959-.979-3.822-1.915a1094 1094 0 0 0-10.582-5.235C406.293 600.327 393.608 593.306 381 586l-2.135-1.229C367.229 578.05 356.119 570.535 345 563l-1.947-1.313C328.672 551.969 314.972 541.528 302 530l-2.284-2.019C286.582 516.284 273.717 503.979 263 490a838 838 0 0 0-2.91-3.57c-6.161-7.538-11.894-15.182-17.09-23.43l-1.949-3.07A556 556 0 0 1 235 450l-1.082-1.795c-24.244-40.478-37.262-91.363-26.251-138.163C214.551 283.98 226.438 261.557 245 242l1.487-1.602C310.46 171.784 409.705 183.495 480 234"/><path d="m733 216 1.692 1.002c9.197 5.5 17.363 11.821 25.308 18.998l2.355 2.102C774.964 249.999 784.179 264.669 792 280l1.516 2.875C803.864 303.834 807.642 328.851 807 352l-.051 3.363c-1.113 30.642-11.598 60.224-26.418 86.801-1.612 2.79-1.612 2.79-2.531 5.836h-2l-.324 1.73c-.777 2.609-1.928 4.358-3.488 6.582-2.614 3.805-4.934 7.662-7.188 11.688l-2 3 23 1v2q-6.312 1.22-12.625 2.438l-3.605.697-3.497.674-3.205.618c-3.016.563-6.042 1.069-9.068 1.573l-2 17 4.086.621 5.289.817 2.695.408 2.578.4 2.381.365C771 500 771 500 773 501v2h-24l-3.062 5.875c-3.219 6.044-6.839 11.632-10.938 17.125l-1.609 2.23c-18.552 24.957-48.586 41.488-76.84 53.274-3.197 1.347-6.304 2.8-9.426 4.308-7.663 3.577-15.58 6.508-23.486 9.498C587.552 608.971 551.141 624.462 519 646l-3 2c-1.761-1.761-1.13-4.485-1.188-6.875.09-13.767 6.253-25.46 15.938-35.187A266 266 0 0 1 534 603l2.375-2.438c6.039-5.895 12.208-11.177 19.266-15.824 2.731-2.012 5.012-4.295 7.359-6.738l-1.857-.819C536.893 566.362 519.473 554.203 506 531l-20 3v-3l3.246-1.242 4.192-1.633 2.142-.816c3.919-1.289 3.919-1.289 6.42-4.309a127 127 0 0 0-1.875-7.562l-.566-2.116c-.734-3.442-.734-3.442-2.559-6.322h-14v-2l13-5 .078-4.469c.56-22.236 4.823-41.19 18.457-59.277l1.215-1.625a88 88 0 0 1 2.641-3.274c3.814-4.743 4.291-8.504 4.484-14.48C524.164 397.17 529.019 375.718 538 358l3-2c14.335 6.902 34.548 18.096 42 33 6.438-.575 12.726-1.642 19.062-2.896 8.166-1.596 16-2.27 24.313-2.229l2.881.006c8.936.053 17.831.503 26.744 1.119l1.801-3.262C664.812 369.291 672.817 359.049 683 349h2v-2h2v-2c14.938-11.252 14.938-11.252 20-13 1.675.29 3.343.619 5 1 18.774 55.073 18.774 55.073 19.198 73.392.147 5.967.265 9.931 4.364 14.483l1.942 1.742L739 424v2c4.015-2.676 4.357-5.744 5.5-10.188l.649-2.443c10.839-41.549 8.818-86.649-12.524-124.494-17.174-28.486-44.036-47.607-76.194-55.967C608.664 221.189 560.194 231.86 517 254l-3-1c13.954-16.971 30.565-28.943 50-39l1.817-.948C617.855 186.298 682.34 185.772 733 216m-41.953 146.824C680.103 373.848 672.126 387.861 666 402l-2.085-.275c-30.607-3.973-56.936-2.108-86.915 5.275l-.746-2.145C571.263 393.49 560.395 381.635 550 375l-4 1c-1.12 4.872-2.221 9.747-3.312 14.625l-.495 2.197c-2.248 10.037-4.18 19.985-4.866 30.274-.652 6.812-3.545 10.183-8.327 14.904-9.707 10.969-14.517 22.854-18 37l-.602 2.387c-.555 3.642-.503 7.253-.46 10.925l.013 2.245c-.249 4.169-.249 4.169 2.049 7.443 1.982.288 1.982.288 4.27.238l2.665.04 2.877.034c11.537.298 22.104 2.617 33.188 5.688l1 2-3-1c-12.924-1.498-26.015-1.105-39-1l-1 2q1.18 2.941 2.375 5.875l1.336 3.305c1.12 2.883 1.12 2.883 3.289 4.82l1.726-.363c7.103-1.46 14.236-2.638 21.399-3.762A7654 7654 0 0 1 555 514v2l-3.875.625c-5.345 1.063-10.458 2.669-15.625 4.375l-2.429.792-2.29.77-2.06.692c-1.932.713-1.932.713-3.721 2.746.742 6.975 5.971 10.601 11 15 15.712 12.43 33.539 19.586 52.875 24.25l2.052.495c34.642 7.924 74.701.552 105.073-17.745a187.7 187.7 0 0 0 24-19v-2l3-1a114 114 0 0 0 5.438-6.5l1.493-1.909c3.534-4.628 6.077-9.09 8.069-14.591l-2-2h-38c10.823-7.215 29.584-4.19 42-4q.731-2.154 1.457-4.309l.82-2.423A50 50 0 0 0 744 483l-1-1c-7.887.506-15.29 2.123-22.938 4.062q-3.324.835-6.652 1.661l-2.933.742C708 489 708 489 705 489c10.199-5.087 19.915-9.222 31-12 4.611-1.207 4.611-1.207 9-3-.805-10.82-1.894-20.239-7-30l-1.426-2.941C731.282 430.987 723.142 422.707 714 416l-.12-2.285c-1.125-20.42-2.608-39.171-11.88-57.715-4.877 0-7.573 3.601-10.953 6.824M773 447l1 2Zm-13 27-1 2h2zm-19 4v2h3v-2zm7 12 1 2Zm-247 16v5h2l-1-5zm77 103-1 2h2zm-8 3 1 2Zm-40 21-2 3 5-2z"/><path d="M509 267c4.996 1.011 9.434 2.781 14 5l2.479 1.204c9.014 4.445 18.027 8.954 26.087 15.003 2.539 1.87 5.149 3.571 7.798 5.279C570.29 300.573 581.866 308.154 588 320l1.875 3.5c4.633 14.039.014 28.768-6.187 41.438L582 368c-3.487-1.996-6.545-4.175-9.625-6.75-7.557-6.076-15.26-11.023-24.187-14.812l-1.886-.837c-3.249-1.302-5.134-1.636-8.587-.917-6.325 3.067-8.884 9.235-11.715 15.316-3.542-2.362-3.758-3.416-5.051-7.363l-1.107-3.346-1.154-3.603-1.211-3.692c-2.372-7.306-4.527-14.646-6.539-22.058-3.968-14.344-9.805-27.022-18.257-39.283-2.604-3.795-4.463-7.149-5.681-11.655 5.912-3.942 15.07-2.641 22-2m-168.5 1.875 2.492.027q3.005.038 6.008.098l2 4-.99 1.566c-13.961 22.233-21.29 44.085-27.01 69.621-4.662 20.664-10.619 45.612-29.285 58.376-5.352 2.718-10.802 3.381-16.715 2.437-10.356-3.385-15.92-12.135-20.762-21.355-7.437-15.04-14.969-33.977-10.367-50.836C250.49 320.95 258.03 313.575 268 306l1.916-1.468c13.661-10.45 13.661-10.45 20.705-14.981a212 212 0 0 0 5.727-3.883c13.616-9.445 27.187-17.152 44.152-16.793m46.54 83.375c1.961 1.754 1.961 1.754 3.961 4.754.125 2.687.125 2.687 0 5l-3 3c-4.742-.287-7.107-2.543-10.449-5.625-3.57-3.165-7.291-2.644-11.856-2.59-4.872.388-6.909 2.301-10.008 5.902l-1.687 2.313h-6c-2-2-2-2-2.313-4.625.403-4.345 2.168-6.557 5.313-9.375 11.884-8.228 24.538-7.37 36.039 1.246m97.585-4.56c1.766 1.113 1.766 1.113 3.375 2.312l1.734 1.168c3.771 2.775 5.216 5.32 6.266 9.832l-4 4c-4.695-.276-6.599-2.284-9.57-5.624-3.287-3.161-7.731-2.646-11.996-2.59-5.626.496-8.722 4.29-12.434 8.214l-6-1-2-6c8.718-10.917 20.743-16.89 34.625-10.312m-62.75 41.87 3.066-.061c8.638.006 17.288 1.464 23.746 7.623 2.616 3.592 3.186 6.733 2.891 11.129-2.171 10.312-8.39 18.291-16.797 24.344-5.231 3.403-5.231 3.403-7.781 3.403.135 8.062.338 14.852 6 21 8.022 6.35 16.099 7.041 26 6 3.155-1.199 5.478-2.781 8-5 4.608-3.966 4.608-3.966 7.813-4.25 2.187.25 2.187.25 4.187 2.25.226 4.74.226 4.74-1.18 6.355-5.851 6.323-13.426 11.207-22.191 11.918-11.071.392-20.114-1.22-28.879-8.586l-2.75-2.687c-3.725.225-5.519 1.319-8.125 3.812-7.573 6.744-16.418 7.877-26.289 7.566-9.005-.951-15.413-4.857-21.586-11.378l-2-3 1-5 7-1 1.574 1.46 2.113 1.914 2.075 1.899c6.342 4.892 13.559 4.422 21.238 3.727 5.985-1.659 9.988-5.401 14-10 1.187-3.561 1.097-6.439 1.063-10.188l-.028-3.855-.035-2.957-2.379-1.032c-10.163-4.688-16.51-10.449-20.621-20.968-1.355-4.67-1.831-9.063.125-13.626 7.604-9.632 17.025-10.894 28.75-10.812M696 462c2.625 2.25 2.625 2.25 4 4l-1 4c-3.481 1.197-5.469.967-8.75-.438-5.175-2.101-10.009-2.611-15.387-.871-4.916 2.238-8.251 5.336-11.863 9.309l-5-1c-1-3-1-3 0-5.562 3.229-5.55 8.083-9.859 14-12.438 8.98-2.041 15.875-1.249 24 3m-108 8c3.404 3.218 5.578 6.215 6 11l-5 1-1.574-1.242c-5.62-4.342-9.784-7.244-17.172-7.09-3.562.525-6.682 1.905-9.957 3.359-2.096.888-4.078 1.489-6.297 1.973l-2-2c0-2.86.545-4.525 2.531-6.598 10.233-8.263 22.817-8.071 33.469-.402m53 17c1.312 2.125 1.312 2.125 2 4-1.99 4.609-3.977 7.036-8 10l-1 2h-2c.116 4.828.255 8.053 3.312 11.938C641.05 519.34 645.857 519.84 653 519c4.476-2.197 7.099-4.983 10-9 3.875.875 3.875.875 5 2-1.004 8.034-1.004 8.034-5.25 11.438l-2.391 1.933c-5.851 4.04-13.535 3.194-20.359 2.629-3.011-.93-5.428-2.197-8-4l-2.5-1.75L628 521v2a798 798 0 0 1-4.75 2.938l-2.672 1.652c-5.812 3.179-12.321 3.172-18.762 2.019-5.923-1.801-9.154-5.791-12.816-10.609l1-5c4.386.506 6.783 3.202 10 6 3.925 1.963 8.711 1.342 13 1 4.185-1.692 6.508-4.262 9-8 .997-2.849 1.081-4.535.562-7.5-2.334-3.735-5.757-5.42-9.562-7.5v-2h-2v-6c7.095-6.665 21.393-7.419 30-3m-91.25 207.9c13.842 12.928 20.146 28.085 21.434 46.828.431 16.963-5.855 32.054-17.211 44.484-13.25 12.832-30.064 16.28-47.877 16.137-18.664-.463-31.303-7.272-44.1-20.351-11.649-12.612-15.679-28.005-15.238-44.762.71-15.627 7.305-29.446 18.537-40.225 22.627-20.485 60.966-22.217 84.455-2.111m-68.66 20.391c-6.246 8.535-9.791 16.051-9.594 26.707l-.047 2.539c.066 10.604 5.134 18.958 12.43 26.375 8.896 8.198 16.94 10.369 28.898 10.234 10.62-.49 18.147-5.379 25.391-12.894 8.119-10.011 8.626-20.914 7.828-33.254-1.693-11.105-8.542-19.798-17.187-26.625-14.906-10.162-36.303-6.814-47.719 6.918M419.5 697.6c11.748 11.271 17.29 27.139 17.836 43.111.295 16.96-3.935 32.39-15.816 44.901-12.787 12.151-27.473 16.814-44.891 16.703l-2.785-.015c-6.982-.12-13.232-.941-19.84-3.298l-2.965-.925c-8.857-3.135-14.601-8.482-21.035-15.075l-2.098-2.07c-10.796-11.342-14.442-26.579-14.324-41.886.617-16.801 7.738-30.298 19.422-42.044l1.605-1.711c22.936-22.287 62.488-16.843 84.891 2.309m-71.555 16.863c-8.295 10.85-10.076 21.127-8.941 34.539 2.011 11.232 6.781 19.124 15.937 25.875a147 147 0 0 0 5.063 3.125l1.855 1.098c7.514 3.566 17.617 3.03 25.532 1.059 9.052-3.431 16.813-9.395 21.617-17.907 4.753-10.737 5.818-22.73 1.965-33.879-4.457-10.907-10.856-18.352-21.575-23.461-14.508-5.514-31.071-1.882-41.453 9.551M226 684h87c-.867 4.336-1.464 6.158-3.699 9.707l-1.638 2.639L306 699q-1.454 2.409-2.895 4.824l-1.441 2.403-3.054 5.091a9305 9305 0 0 1-7.036 11.713 1960 1960 0 0 0-11.636 19.594c-4.573 7.798-9.284 15.5-14.058 23.176a4977 4977 0 0 0-3.38 5.449l-2.031 3.266c-1.554 2.146-1.554 2.146-1.469 3.484l1.967.031q10.097.163 20.195.341 3.772.066 7.546.125 5.41.088 10.819.187l3.431.05 3.155.061 2.793.047C311 779 311 779 312 780c.086 1.343.107 2.69.098 4.035l-.01 2.451-.026 2.576-.013 2.588c-.036 6.337-.036 6.337-1.049 7.35h-90c.929-4.646 1.383-5.916 4.062-9.438 3.752-5.154 6.851-10.509 9.946-16.07 1.744-3.102 3.612-6.112 5.51-9.121 2.881-4.609 5.681-9.266 8.497-13.914q2.832-4.673 5.669-9.344 3.042-5.012 6.082-10.026c10.25-16.894 10.25-16.894 15.234-24.087-1.611-1.611-3.367-1.157-5.596-1.189l-2.962-.051-3.223-.041-3.285-.056q-5.217-.087-10.434-.163-6.86-.101-13.719-.219l-3.223-.041-2.962-.051-2.622-.038C226 705 226 705 225 704c-.029-3.146-.047-6.292-.062-9.438l-.026-2.72-.01-2.588-.016-2.396C225 685 225 685 226 684m351 0h92c2 2 2 2 2.195 5.914q-.02 2.356-.07 4.711l-.027 2.43c-.071 5.918-.071 5.918-1.098 6.945-2.519.16-5.013.259-7.535.316l-2.283.063q-3.622.098-7.244.183l-4.901.131q-6.018.161-12.037.307l-.031 3.524a39812 39812 0 0 1-.308 32.801q-.084 8.433-.158 16.866-.072 8.13-.156 16.261-.03 3.11-.056 6.219-.037 4.34-.086 8.678l-.017 2.625c-.074 5.912-.074 5.912-1.188 7.026h-21l-1-1v-94h-35c-1.247-3.74-1.146-7.232-1.125-11.125l-.012-2.246c.01-5.502.01-5.502 1.137-6.629m103 0h23c2.924 4.761 5.794 9.45 8.188 14.5 2.818 5.792 6.249 11.185 9.638 16.654 4 6.482 7.673 13.082 11.174 19.846 2.553-3.067 4.677-6.017 6.5-9.562 2.945-5.545 6.172-10.889 9.438-16.25 4.31-7.098 8.272-14.242 11.855-21.731C761 685 761 685 762 684h23c-.804 3.215-1.413 4.995-3.012 7.738l-1.275 2.2-1.401 2.374-1.468 2.512c-9.558 16.271-19.472 32.324-29.624 48.229L747 749l-1.622 2.11c-2.038 4.275-1.838 8.288-1.855 12.968l-.047 2.931c-.047 3.08-.075 6.16-.101 9.241q-.054 4.642-.123 9.284a926 926 0 0 0-.063 5.772l-.031 2.621-.02 2.316C743 798 743 798 742 799h-20c-1.544-1.544-1.216-3.056-1.316-5.207l-.126-2.688-.12-2.917-.142-2.986c-.212-4.922-.32-9.801-.148-14.725.352-10.247-.018-16.852-6.148-25.477a426 426 0 0 1-3.312-5.75c-4.666-7.945-9.423-15.835-14.181-23.726q-2.38-3.948-4.757-7.899l-1.501-2.484c-3.968-6.595-7.843-13.235-11.249-20.141zm46 48 1 3 2-1z"/></svg>